<svg xmlns="http://www.w3.org/2000/svg" width="1664.781982421875" height="1529.5419921875" viewBox="-875.5200805664062 -741.4218139648438 1664.781982421875 1529.5419921875"><title>Neo4j Graph Visualization</title><desc>Created using Neo4j (http://www.neo4j.com/)</desc><g class="layer relationships"><g class="relationship" transform="translate(-401.7932224378556 614.1739108284014) rotate(296.91349487536877)"><path class="b-outline" fill="#A5ABB6" stroke="none" d="M 25 0.5 L 56.80555718802755 0.5 L 56.80555718802755 -0.5 L 25 -0.5 Z M 81.02821343802755 0.5 L 112.8337706260551 0.5 L 112.8337706260551 3.5 L 119.8337706260551 0 L 112.8337706260551 -3.5 L 112.8337706260551 -0.5 L 81.02821343802755 -0.5 Z"/><text text-anchor="middle" pointer-events="none" font-size="8px" fill="#000000" x="68.91688531302755" y="3" font-family="Helvetica Neue, Helvetica, Arial, sans-serif">HIJO</text></g><g class="relationship" transform="translate(-480.76511510986404 471.6556316250478) rotate(365.2857172783995)"><path class="b-outline" fill="#A5ABB6" stroke="none" d="M 25 0.5 L 56.96234607961213 0.5 L 56.96234607961213 -0.5 L 25 -0.5 Z M 81.18500232961213 0.5 L 113.14734840922426 0.5 L 113.14734840922426 3.5 L 120.14734840922426 0 L 113.14734840922426 -3.5 L 113.14734840922426 -0.5 L 81.18500232961213 -0.5 Z"/><text text-anchor="middle" pointer-events="none" font-size="8px" fill="#000000" x="69.07367420461213" y="3" font-family="Helvetica Neue, Helvetica, Arial, sans-serif">HIJO</text></g><g class="relationship" transform="translate(-336.2349777232185 485.0269493322187) rotate(354.24232590019164)"><path class="b-outline" fill="#A5ABB6" stroke="none" d="M 25 0.5 L 62.37317459701144 0.5 L 62.37317459701144 -0.5 L 25 -0.5 Z M 86.59583084701144 0.5 L 123.96900544402288 0.5 L 123.96900544402288 3.5 L 130.96900544402288 0 L 123.96900544402288 -3.5 L 123.96900544402288 -0.5 L 86.59583084701144 -0.5 Z"/><text text-anchor="middle" pointer-events="none" font-size="8px" fill="#000000" x="74.48450272201144" y="3" font-family="Helvetica Neue, Helvetica, Arial, sans-serif">HIJO</text></g><g class="relationship" transform="translate(-133.64543398121802 759.1200415327739) rotate(254.30715431875694)"><path class="b-outline" fill="#A5ABB6" stroke="none" d="M 25 0.5 L 56.34368615499662 0.5 L 56.34368615499662 -0.5 L 25 -0.5 Z M 80.56634240499662 0.5 L 111.91002855999324 0.5 L 111.91002855999324 3.5 L 118.91002855999324 0 L 111.91002855999324 -3.5 L 111.91002855999324 -0.5 L 80.56634240499662 -0.5 Z"/><text text-anchor="middle" pointer-events="none" font-size="8px" fill="#000000" x="68.45501427999662" y="3" transform="rotate(180 68.45501427999662 0)" font-family="Helvetica Neue, Helvetica, Arial, sans-serif">HIJO</text></g><g class="relationship" transform="translate(-172.57025246839774 620.5741833273473) rotate(266.7888564054512)"><path class="b-outline" fill="#A5ABB6" stroke="none" d="M 25 0.5 L 60.10468010387176 0.5 L 60.10468010387176 -0.5 L 25 -0.5 Z M 84.32733635387176 0.5 L 119.43201645774352 0.5 L 119.43201645774352 3.5 L 126.43201645774352 0 L 119.43201645774352 -3.5 L 119.43201645774352 -0.5 L 84.32733635387176 -0.5 Z"/><text text-anchor="middle" pointer-events="none" font-size="8px" fill="#000000" x="72.21600822887176" y="3" transform="rotate(180 72.21600822887176 0)" font-family="Helvetica Neue, Helvetica, Arial, sans-serif">HIJO</text></g><g class="relationship" transform="translate(-181.05282182659656 469.3799320294172) rotate(331.48755688041217)"><path class="b-outline" fill="#A5ABB6" stroke="none" d="M 25 0.5 L 64.90442513129184 0.5 L 64.90442513129184 -0.5 L 25 -0.5 Z M 89.12708138129184 0.5 L 129.0315065125837 0.5 L 129.0315065125837 3.5 L 136.0315065125837 0 L 129.0315065125837 -3.5 L 129.0315065125837 -0.5 L 89.12708138129184 -0.5 Z"/><text text-anchor="middle" pointer-events="none" font-size="8px" fill="#000000" x="77.01575325629184" y="3" font-family="Helvetica Neue, Helvetica, Arial, sans-serif">HIJO</text></g><g class="relationship" transform="translate(236.30758219425306 737.9013490375197) rotate(212.90438262457366)"><path class="b-outline" fill="#A5ABB6" stroke="none" d="M 25 0.5 L 56.31908248638493 0.5 L 56.31908248638493 -0.5 L 25 -0.5 Z M 80.54173873638493 0.5 L 111.86082122276986 0.5 L 111.86082122276986 3.5 L 118.86082122276986 0 L 111.86082122276986 -3.5 L 111.86082122276986 -0.5 L 80.54173873638493 -0.5 Z"/><text text-anchor="middle" pointer-events="none" font-size="8px" fill="#000000" x="68.43041061138493" y="3" transform="rotate(180 68.43041061138493 0)" font-family="Helvetica Neue, Helvetica, Arial, sans-serif">HIJO</text></g><g class="relationship" transform="translate(115.52515646179951 659.7505875756242) rotate(240.84479297223623)"><path class="b-outline" fill="#A5ABB6" stroke="none" d="M 25 0.5 L 60.74530829236599 0.5 L 60.74530829236599 -0.5 L 25 -0.5 Z M 84.96796454236599 0.5 L 120.71327283473198 0.5 L 120.71327283473198 3.5 L 127.71327283473198 0 L 120.71327283473198 -3.5 L 120.71327283473198 -0.5 L 84.96796454236599 -0.5 Z"/><text text-anchor="middle" pointer-events="none" font-size="8px" fill="#000000" x="72.85663641736599" y="3" transform="rotate(180 72.85663641736599 0)" font-family="Helvetica Neue, Helvetica, Arial, sans-serif">HIJO</text></g><g class="relationship" transform="translate(41.12675121400319 526.3855959305903) rotate(238.92477546697745)"><path class="b-outline" fill="#A5ABB6" stroke="none" d="M 25 0.5 L 62.541326039835454 0.5 L 62.541326039835454 -0.5 L 25 -0.5 Z M 86.76398228983545 0.5 L 124.30530832967091 0.5 L 124.30530832967091 3.5 L 131.3053083296709 0 L 124.30530832967091 -3.5 L 124.30530832967091 -0.5 L 86.76398228983545 -0.5 Z"/><text text-anchor="middle" pointer-events="none" font-size="8px" fill="#000000" x="74.65265416483545" y="3" transform="rotate(180 74.65265416483545 0)" font-family="Helvetica Neue, Helvetica, Arial, sans-serif">HIJO</text></g><g class="relationship" transform="translate(-39.55226864475228 392.5116060495681) rotate(300.8577742422816)"><path class="b-outline" fill="#A5ABB6" stroke="none" d="M 25 0.5 L 68.17077899452019 0.5 L 68.17077899452019 -0.5 L 25 -0.5 Z M 92.39343524452019 0.5 L 135.56421423904038 0.5 L 135.56421423904038 3.5 L 142.56421423904038 0 L 135.56421423904038 -3.5 L 135.56421423904038 -0.5 L 92.39343524452019 -0.5 Z"/><text text-anchor="middle" pointer-events="none" font-size="8px" fill="#000000" x="80.28210711952019" y="3" font-family="Helvetica Neue, Helvetica, Arial, sans-serif">HIJO</text></g><g class="relationship" transform="translate(570.6937804777604 518.7209268704329) rotate(535.8420458078704)"><path class="b-outline" fill="#A5ABB6" stroke="none" d="M 25 0.5 L 56.03630872999278 0.5 L 56.03630872999278 -0.5 L 25 -0.5 Z M 80.25896497999278 0.5 L 111.29527370998557 0.5 L 111.29527370998557 3.5 L 118.29527370998557 0 L 111.29527370998557 -3.5 L 111.29527370998557 -0.5 L 80.25896497999278 -0.5 Z"/><text text-anchor="middle" pointer-events="none" font-size="8px" fill="#000000" x="68.14763685499278" y="3" transform="rotate(180 68.14763685499278 0)" font-family="Helvetica Neue, Helvetica, Arial, sans-serif">HIJO</text></g><g class="relationship" transform="translate(427.77566657133616 529.110738468823) rotate(216.97431284820328)"><path class="b-outline" fill="#A5ABB6" stroke="none" d="M 25 0.5 L 59.90767099907099 0.5 L 59.90767099907099 -0.5 L 25 -0.5 Z M 84.13032724907099 0.5 L 119.03799824814197 0.5 L 119.03799824814197 3.5 L 126.03799824814197 0 L 119.03799824814197 -3.5 L 119.03799824814197 -0.5 L 84.13032724907099 -0.5 Z"/><text text-anchor="middle" pointer-events="none" font-size="8px" fill="#000000" x="72.01899912407099" y="3" transform="rotate(180 72.01899912407099 0)" font-family="Helvetica Neue, Helvetica, Arial, sans-serif">HIJO</text></g><g class="relationship" transform="translate(307.1106185247133 438.26789012778994) rotate(216.4220707093707)"><path class="b-outline" fill="#A5ABB6" stroke="none" d="M 25 0.5 L 64.06213201464834 0.5 L 64.06213201464834 -0.5 L 25 -0.5 Z M 88.28478826464834 0.5 L 127.34692027929668 0.5 L 127.34692027929668 3.5 L 134.34692027929668 0 L 127.34692027929668 -3.5 L 127.34692027929668 -0.5 L 88.28478826464834 -0.5 Z"/><text text-anchor="middle" pointer-events="none" font-size="8px" fill="#000000" x="76.17346013964834" y="3" transform="rotate(180 76.17346013964834 0)" font-family="Helvetica Neue, Helvetica, Arial, sans-serif">HIJO</text></g><g class="relationship" transform="translate(178.88970520659322 343.65901955867434) rotate(215.63810718122772)"><path class="b-outline" fill="#A5ABB6" stroke="none" d="M 25 0.5 L 65.90376814430539 0.5 L 65.90376814430539 -0.5 L 25 -0.5 Z M 90.12642439430539 0.5 L 131.03019253861078 0.5 L 131.03019253861078 3.5 L 138.03019253861078 0 L 131.03019253861078 -3.5 L 131.03019253861078 -0.5 L 90.12642439430539 -0.5 Z"/><text text-anchor="middle" pointer-events="none" font-size="8px" fill="#000000" x="78.01509626930539" y="3" transform="rotate(180 78.01509626930539 0)" font-family="Helvetica Neue, Helvetica, Arial, sans-serif">HIJO</text></g><g class="relationship" transform="translate(46.3928808914703 248.66725557050563) rotate(266.33765019637076)"><path class="b-outline" fill="#A5ABB6" stroke="none" d="M 25 0.5 L 75.61634618112072 0.5 L 75.61634618112072 -0.5 L 25 -0.5 Z M 99.83900243112072 0.5 L 150.45534861224144 0.5 L 150.45534861224144 3.5 L 157.45534861224144 0 L 150.45534861224144 -3.5 L 150.45534861224144 -0.5 L 99.83900243112072 -0.5 Z"/><text text-anchor="middle" pointer-events="none" font-size="8px" fill="#000000" x="87.72767430612072" y="3" transform="rotate(180 87.72767430612072 0)" font-family="Helvetica Neue, Helvetica, Arial, sans-serif">HIJO</text></g><g class="relationship" transform="translate(760.2618200052685 158.7962454365556) rotate(498.3489895337452)"><path class="b-outline" fill="#A5ABB6" stroke="none" d="M 25 0.5 L 56.322680976851956 0.5 L 56.322680976851956 -0.5 L 25 -0.5 Z M 80.54533722685196 0.5 L 111.86801820370391 0.5 L 111.86801820370391 3.5 L 118.86801820370391 0 L 111.86801820370391 -3.5 L 111.86801820370391 -0.5 L 80.54533722685196 -0.5 Z"/><text text-anchor="middle" pointer-events="none" font-size="8px" fill="#000000" x="68.43400910185196" y="3" transform="rotate(180 68.43400910185196 0)" font-family="Helvetica Neue, Helvetica, Arial, sans-serif">HIJO</text></g><g class="relationship" transform="translate(652.7626728427288 254.4097383190348) rotate(193.85062612685243)"><path class="b-outline" fill="#A5ABB6" stroke="none" d="M 25 0.5 L 59.908151288181216 0.5 L 59.908151288181216 -0.5 L 25 -0.5 Z M 84.13080753818122 0.5 L 119.03895882636243 0.5 L 119.03895882636243 3.5 L 126.03895882636243 0 L 119.03895882636243 -3.5 L 119.03895882636243 -0.5 L 84.13080753818122 -0.5 Z"/><text text-anchor="middle" pointer-events="none" font-size="8px" fill="#000000" x="72.01947941318122" y="3" transform="rotate(180 72.01947941318122 0)" font-family="Helvetica Neue, Helvetica, Arial, sans-serif">HIJO</text></g><g class="relationship" transform="translate(506.1154535166093 218.2523027453022) rotate(197.03969480266164)"><path class="b-outline" fill="#A5ABB6" stroke="none" d="M 25 0.5 L 63.46216713255107 0.5 L 63.46216713255107 -0.5 L 25 -0.5 Z M 87.68482338255107 0.5 L 126.14699051510215 0.5 L 126.14699051510215 3.5 L 133.14699051510215 0 L 126.14699051510215 -3.5 L 126.14699051510215 -0.5 L 87.68482338255107 -0.5 Z"/><text text-anchor="middle" pointer-events="none" font-size="8px" fill="#000000" x="75.57349525755107" y="3" transform="rotate(180 75.57349525755107 0)" font-family="Helvetica Neue, Helvetica, Arial, sans-serif">HIJO</text></g><g class="relationship" transform="translate(354.91080435188974 171.90983108098678) rotate(199.3952851378449)"><path class="b-outline" fill="#A5ABB6" stroke="none" d="M 25 0.5 L 67.82469893951763 0.5 L 67.82469893951763 -0.5 L 25 -0.5 Z M 92.04735518951763 0.5 L 134.87205412903526 0.5 L 134.87205412903526 3.5 L 141.87205412903526 0 L 134.87205412903526 -3.5 L 134.87205412903526 -0.5 L 92.04735518951763 -0.5 Z"/><text text-anchor="middle" pointer-events="none" font-size="8px" fill="#000000" x="79.93602706451763" y="3" transform="rotate(180 79.93602706451763 0)" font-family="Helvetica Neue, Helvetica, Arial, sans-serif">HIJO</text></g><g class="relationship" transform="translate(197.50874125545366 116.49437310914256) rotate(197.04696456748587)"><path class="b-outline" fill="#A5ABB6" stroke="none" d="M 25 0.5 L 69.51390639071548 0.5 L 69.51390639071548 -0.5 L 25 -0.5 Z M 93.73656264071548 0.5 L 138.25046903143095 0.5 L 138.25046903143095 3.5 L 145.25046903143095 0 L 138.25046903143095 -3.5 L 138.25046903143095 -0.5 L 93.73656264071548 -0.5 Z"/><text text-anchor="middle" pointer-events="none" font-size="8px" fill="#000000" x="81.62523451571548" y="3" transform="rotate(180 81.62523451571548 0)" font-family="Helvetica Neue, Helvetica, Arial, sans-serif">HIJO</text></g><g class="relationship" transform="translate(34.73826375762422 66.58451576061036) rotate(240.1751419014276)"><path class="b-outline" fill="#A5ABB6" stroke="none" d="M 25 0.5 L 83.91113098873129 0.5 L 83.91113098873129 -0.5 L 25 -0.5 Z M 108.13378723873129 0.5 L 167.04491822746257 0.5 L 167.04491822746257 3.5 L 174.04491822746257 0 L 167.04491822746257 -3.5 L 167.04491822746257 -0.5 L 108.13378723873129 -0.5 Z"/><text text-anchor="middle" pointer-events="none" font-size="8px" fill="#000000" x="96.02245911373129" y="3" transform="rotate(180 96.02245911373129 0)" font-family="Helvetica Neue, Helvetica, Arial, sans-serif">HIJO</text></g><g class="relationship" transform="translate(636.0692073857114 -247.80738189605694) rotate(537.3458378341684)"><path class="b-outline" fill="#A5ABB6" stroke="none" d="M 25 0.5 L 58.284373445495845 0.5 L 58.284373445495845 -0.5 L 25 -0.5 Z M 82.50702969549585 0.5 L 115.79140314099169 0.5 L 115.79140314099169 3.5 L 122.79140314099169 0 L 115.79140314099169 -3.5 L 115.79140314099169 -0.5 L 82.50702969549585 -0.5 Z"/><text text-anchor="middle" pointer-events="none" font-size="8px" fill="#000000" x="70.39570157049585" y="3" transform="rotate(180 70.39570157049585 0)" font-family="Helvetica Neue, Helvetica, Arial, sans-serif">HIJO</text></g><g class="relationship" transform="translate(566.7367696634907 -366.49148891890627) rotate(481.9546330731923)"><path class="b-outline" fill="#A5ABB6" stroke="none" d="M 25 0.5 L 58.36200607797957 0.5 L 58.36200607797957 -0.5 L 25 -0.5 Z M 82.58466232797957 0.5 L 115.94666840595914 0.5 L 115.94666840595914 3.5 L 122.94666840595914 0 L 115.94666840595914 -3.5 L 115.94666840595914 -0.5 L 82.58466232797957 -0.5 Z"/><text text-anchor="middle" pointer-events="none" font-size="8px" fill="#000000" x="70.47333420297957" y="3" transform="rotate(180 70.47333420297957 0)" font-family="Helvetica Neue, Helvetica, Arial, sans-serif">HIJO</text></g><g class="relationship" transform="translate(488.4363487357355 -240.96356065208914) rotate(507.707884150419)"><path class="b-outline" fill="#A5ABB6" stroke="none" d="M 25 0.5 L 72.16166668255191 0.5 L 72.16166668255191 -0.5 L 25 -0.5 Z M 96.38432293255191 0.5 L 143.54598961510382 0.5 L 143.54598961510382 3.5 L 150.54598961510382 0 L 143.54598961510382 -3.5 L 143.54598961510382 -0.5 L 96.38432293255191 -0.5 Z"/><text text-anchor="middle" pointer-events="none" font-size="8px" fill="#000000" x="84.27299480755191" y="3" transform="rotate(180 84.27299480755191 0)" font-family="Helvetica Neue, Helvetica, Arial, sans-serif">HIJO</text></g><g class="relationship" transform="translate(618.772418967302 -36.12282027903693) rotate(191.97515904073487)"><path class="b-outline" fill="#A5ABB6" stroke="none" d="M 25 0.5 L 57.906215000662755 0.5 L 57.906215000662755 -0.5 L 25 -0.5 Z M 82.12887125066275 0.5 L 115.03508625132551 0.5 L 115.03508625132551 3.5 L 122.03508625132551 0 L 115.03508625132551 -3.5 L 115.03508625132551 -0.5 L 82.12887125066275 -0.5 Z"/><text text-anchor="middle" pointer-events="none" font-size="8px" fill="#000000" x="70.01754312566275" y="3" transform="rotate(180 70.01754312566275 0)" font-family="Helvetica Neue, Helvetica, Arial, sans-serif">HIJO</text></g><g class="relationship" transform="translate(474.93716168554755 -66.63077582552091) rotate(210.84247858605266)"><path class="b-outline" fill="#A5ABB6" stroke="none" d="M 25 0.5 L 62.94631269823877 0.5 L 62.94631269823877 -0.5 L 25 -0.5 Z M 87.16896894823877 0.5 L 125.11528164647754 0.5 L 125.11528164647754 3.5 L 132.11528164647754 0 L 125.11528164647754 -3.5 L 125.11528164647754 -0.5 L 87.16896894823877 -0.5 Z"/><text text-anchor="middle" pointer-events="none" font-size="8px" fill="#000000" x="75.05764082323877" y="3" transform="rotate(180 75.05764082323877 0)" font-family="Helvetica Neue, Helvetica, Arial, sans-serif">HIJO</text></g><g class="relationship" transform="translate(340.04111738309746 -147.1805676216726) rotate(538.9543708968307)"><path class="b-outline" fill="#A5ABB6" stroke="none" d="M 25 0.5 L 81.34399629139526 0.5 L 81.34399629139526 -0.5 L 25 -0.5 Z M 105.56665254139526 0.5 L 161.9106488327905 0.5 L 161.9106488327905 3.5 L 168.9106488327905 0 L 161.9106488327905 -3.5 L 161.9106488327905 -0.5 L 105.56665254139526 -0.5 Z"/><text text-anchor="middle" pointer-events="none" font-size="8px" fill="#000000" x="93.45532441639526" y="3" transform="rotate(180 93.45532441639526 0)" font-family="Helvetica Neue, Helvetica, Arial, sans-serif">HIJO</text></g><g class="relationship" transform="translate(414.1773945028647 -543.8433684015307) rotate(482.59159796793944)"><path class="b-outline" fill="#A5ABB6" stroke="none" d="M 25 0.5 L 58.30004276815022 0.5 L 58.30004276815022 -0.5 L 25 -0.5 Z M 82.52269901815022 0.5 L 115.82274178630044 0.5 L 115.82274178630044 3.5 L 122.82274178630044 0 L 115.82274178630044 -3.5 L 115.82274178630044 -0.5 L 82.52269901815022 -0.5 Z"/><text text-anchor="middle" pointer-events="none" font-size="8px" fill="#000000" x="70.41137089315022" y="3" transform="rotate(180 70.41137089315022 0)" font-family="Helvetica Neue, Helvetica, Arial, sans-serif">HIJO</text></g><g class="relationship" transform="translate(334.5530827245089 -419.2980675546403) rotate(481.7484511632695)"><path class="b-outline" fill="#A5ABB6" stroke="none" d="M 25 0.5 L 67.1582552458111 0.5 L 67.1582552458111 -0.5 L 25 -0.5 Z M 91.3809114958111 0.5 L 133.5391667416222 0.5 L 133.5391667416222 3.5 L 140.5391667416222 0 L 133.5391667416222 -3.5 L 133.5391667416222 -0.5 L 91.3809114958111 -0.5 Z"/><text text-anchor="middle" pointer-events="none" font-size="8px" fill="#000000" x="79.2695833708111" y="3" transform="rotate(180 79.2695833708111 0)" font-family="Helvetica Neue, Helvetica, Arial, sans-serif">HIJO</text></g><g class="relationship" transform="translate(247.44787355216684 -278.5291140863661) rotate(486.90243753941604)"><path class="b-outline" fill="#A5ABB6" stroke="none" d="M 25 0.5 L 68.7290821419783 0.5 L 68.7290821419783 -0.5 L 25 -0.5 Z M 92.9517383919783 0.5 L 136.6808205339566 0.5 L 136.6808205339566 3.5 L 143.6808205339566 0 L 136.6808205339566 -3.5 L 136.6808205339566 -0.5 L 92.9517383919783 -0.5 Z"/><text text-anchor="middle" pointer-events="none" font-size="8px" fill="#000000" x="80.8404102669783" y="3" transform="rotate(180 80.8404102669783 0)" font-family="Helvetica Neue, Helvetica, Arial, sans-serif">HIJO</text></g><g class="relationship" transform="translate(146.16275867116835 -143.6419585838802) rotate(529.8831969380323)"><path class="b-outline" fill="#A5ABB6" stroke="none" d="M 25 0.5 L 91.26012261804848 0.5 L 91.26012261804848 -0.5 L 25 -0.5 Z M 115.48277886804848 0.5 L 181.74290148609697 0.5 L 181.74290148609697 3.5 L 188.74290148609697 0 L 181.74290148609697 -3.5 L 181.74290148609697 -0.5 L 115.48277886804848 -0.5 Z"/><text text-anchor="middle" pointer-events="none" font-size="8px" fill="#000000" x="103.37145074304848" y="3" transform="rotate(180 103.37145074304848 0)" font-family="Helvetica Neue, Helvetica, Arial, sans-serif">HIJO</text></g><g class="relationship" transform="translate(191.28170162733397 -712.4217992759282) rotate(468.9267420638847)"><path class="b-outline" fill="#A5ABB6" stroke="none" d="M 25 0.5 L 57.271946493618074 0.5 L 57.271946493618074 -0.5 L 25 -0.5 Z M 81.49460274361807 0.5 L 113.76654923723615 0.5 L 113.76654923723615 3.5 L 120.76654923723615 0 L 113.76654923723615 -3.5 L 113.76654923723615 -0.5 L 81.49460274361807 -0.5 Z"/><text text-anchor="middle" pointer-events="none" font-size="8px" fill="#000000" x="69.38327461861807" y="3" transform="rotate(180 69.38327461861807 0)" font-family="Helvetica Neue, Helvetica, Arial, sans-serif">HIJO</text></g><g class="relationship" transform="translate(144.00101589662333 -574.536253864651) rotate(469.19783894222417)"><path class="b-outline" fill="#A5ABB6" stroke="none" d="M 25 0.5 L 66.37056571297494 0.5 L 66.37056571297494 -0.5 L 25 -0.5 Z M 90.59322196297494 0.5 L 131.96378767594987 0.5 L 131.96378767594987 3.5 L 138.96378767594987 0 L 131.96378767594987 -3.5 L 131.96378767594987 -0.5 L 90.59322196297494 -0.5 Z"/><text text-anchor="middle" pointer-events="none" font-size="8px" fill="#000000" x="78.48189383797494" y="3" transform="rotate(180 78.48189383797494 0)" font-family="Helvetica Neue, Helvetica, Arial, sans-serif">HIJO</text></g><g class="relationship" transform="translate(90.0846352175303 -419.69069350365424) rotate(472.34856207727273)"><path class="b-outline" fill="#A5ABB6" stroke="none" d="M 25 0.5 L 73.57686954088472 0.5 L 73.57686954088472 -0.5 L 25 -0.5 Z M 97.79952579088472 0.5 L 146.37639533176943 0.5 L 146.37639533176943 3.5 L 153.37639533176943 0 L 146.37639533176943 -3.5 L 146.37639533176943 -0.5 L 97.79952579088472 -0.5 Z"/><text text-anchor="middle" pointer-events="none" font-size="8px" fill="#000000" x="85.68819766588472" y="3" transform="rotate(180 85.68819766588472 0)" font-family="Helvetica Neue, Helvetica, Arial, sans-serif">HIJO</text></g><g class="relationship" transform="translate(22.258758728010257 -254.7125467993587) rotate(480.20551915580324)"><path class="b-outline" fill="#A5ABB6" stroke="none" d="M 25 0.5 L 70.37059855471946 0.5 L 70.37059855471946 -0.5 L 25 -0.5 Z M 94.59325480471946 0.5 L 139.96385335943893 0.5 L 139.96385335943893 3.5 L 146.96385335943893 0 L 139.96385335943893 -3.5 L 139.96385335943893 -0.5 L 94.59325480471946 -0.5 Z"/><text text-anchor="middle" pointer-events="none" font-size="8px" fill="#000000" x="82.48192667971946" y="3" transform="rotate(180 82.48192667971946 0)" font-family="Helvetica Neue, Helvetica, Arial, sans-serif">HIJO</text></g><g class="relationship" transform="translate(-64.25680578182443 -106.09685462732983) rotate(182.63591819064874)"><path class="b-outline" fill="#A5ABB6" stroke="none" d="M 25 0.5 L 88.1699990326157 0.5 L 88.1699990326157 -0.5 L 25 -0.5 Z M 112.3926552826157 0.5 L 175.5626543152314 0.5 L 175.5626543152314 3.5 L 182.5626543152314 0 L 175.5626543152314 -3.5 L 175.5626543152314 -0.5 L 112.3926552826157 -0.5 Z"/><text text-anchor="middle" pointer-events="none" font-size="8px" fill="#000000" x="100.2813271576157" y="3" transform="rotate(180 100.2813271576157 0)" font-family="Helvetica Neue, Helvetica, Arial, sans-serif">HIJO</text></g><g class="relationship" transform="translate(-466.33670834364426 -550.6477556102888) rotate(450.626007185013)"><path class="b-outline" fill="#A5ABB6" stroke="none" d="M 25 0.5 L 58.486527619387346 0.5 L 58.486527619387346 -0.5 L 25 -0.5 Z M 82.70918386938735 0.5 L 116.19571148877469 0.5 L 116.19571148877469 3.5 L 123.19571148877469 0 L 116.19571148877469 -3.5 L 116.19571148877469 -0.5 L 82.70918386938735 -0.5 Z"/><text text-anchor="middle" pointer-events="none" font-size="8px" fill="#000000" x="70.59785574438735" y="3" transform="rotate(180 70.59785574438735 0)" font-family="Helvetica Neue, Helvetica, Arial, sans-serif">HIJO</text></g><g class="relationship" transform="translate(-599.8772078000811 -462.55746920773106) rotate(384.4915666460071)"><path class="b-outline" fill="#A5ABB6" stroke="none" d="M 25 0.5 L 56.871160599648874 0.5 L 56.871160599648874 -0.5 L 25 -0.5 Z M 81.09381684964887 0.5 L 112.96497744929775 0.5 L 112.96497744929775 3.5 L 119.96497744929775 0 L 112.96497744929775 -3.5 L 112.96497744929775 -0.5 L 81.09381684964887 -0.5 Z"/><text text-anchor="middle" pointer-events="none" font-size="8px" fill="#000000" x="68.98248872464887" y="3" font-family="Helvetica Neue, Helvetica, Arial, sans-serif">HIJO</text></g><g class="relationship" transform="translate(-467.95584565553105 -402.46088946477164) rotate(403.2360538700623)"><path class="b-outline" fill="#A5ABB6" stroke="none" d="M 25 0.5 L 68.15798479732175 0.5 L 68.15798479732175 -0.5 L 25 -0.5 Z M 92.38064104732175 0.5 L 135.5386258446435 0.5 L 135.5386258446435 3.5 L 142.5386258446435 0 L 135.5386258446435 -3.5 L 135.5386258446435 -0.5 L 92.38064104732175 -0.5 Z"/><text text-anchor="middle" pointer-events="none" font-size="8px" fill="#000000" x="80.26931292232175" y="3" font-family="Helvetica Neue, Helvetica, Arial, sans-serif">HIJO</text></g><g class="relationship" transform="translate(-277.7207390120111 -597.1662915096147) rotate(462.2255020069367)"><path class="b-outline" fill="#A5ABB6" stroke="none" d="M 25 0.5 L 60.126082932591586 0.5 L 60.126082932591586 -0.5 L 25 -0.5 Z M 84.34873918259159 0.5 L 119.47482211518317 0.5 L 119.47482211518317 3.5 L 126.47482211518317 0 L 119.47482211518317 -3.5 L 119.47482211518317 -0.5 L 84.34873918259159 -0.5 Z"/><text text-anchor="middle" pointer-events="none" font-size="8px" fill="#000000" x="72.23741105759159" y="3" transform="rotate(180 72.23741105759159 0)" font-family="Helvetica Neue, Helvetica, Arial, sans-serif">HIJO</text></g><g class="relationship" transform="translate(-309.7970196907344 -449.1266550852903) rotate(462.60560628182077)"><path class="b-outline" fill="#A5ABB6" stroke="none" d="M 25 0.5 L 67.09767631292527 0.5 L 67.09767631292527 -0.5 L 25 -0.5 Z M 91.32033256292527 0.5 L 133.41800887585055 0.5 L 133.41800887585055 3.5 L 140.41800887585055 0 L 133.41800887585055 -3.5 L 133.41800887585055 -0.5 L 91.32033256292527 -0.5 Z"/><text text-anchor="middle" pointer-events="none" font-size="8px" fill="#000000" x="79.20900443792527" y="3" transform="rotate(180 79.20900443792527 0)" font-family="Helvetica Neue, Helvetica, Arial, sans-serif">HIJO</text></g><g class="relationship" transform="translate(-345.89763618621157 -287.6959790999081) rotate(426.6438821491603)"><path class="b-outline" fill="#A5ABB6" stroke="none" d="M 25 0.5 L 78.09374287421198 0.5 L 78.09374287421198 -0.5 L 25 -0.5 Z M 102.31639912421198 0.5 L 155.41014199842397 0.5 L 155.41014199842397 3.5 L 162.41014199842397 0 L 155.41014199842397 -3.5 L 155.41014199842397 -0.5 L 102.31639912421198 -0.5 Z"/><text text-anchor="middle" pointer-events="none" font-size="8px" fill="#000000" x="90.20507099921198" y="3" font-family="Helvetica Neue, Helvetica, Arial, sans-serif">HIJO</text></g><g class="relationship" transform="translate(-82.64650492949043 -556.797870940778) rotate(464.8304687446069)"><path class="b-outline" fill="#A5ABB6" stroke="none" d="M 25 0.5 L 59.77180921617136 0.5 L 59.77180921617136 -0.5 L 25 -0.5 Z M 83.99446546617136 0.5 L 118.76627468234273 0.5 L 118.76627468234273 3.5 L 125.76627468234273 0 L 118.76627468234273 -3.5 L 118.76627468234273 -0.5 L 83.99446546617136 -0.5 Z"/><text text-anchor="middle" pointer-events="none" font-size="8px" fill="#000000" x="71.88313734117136" y="3" transform="rotate(180 71.88313734117136 0)" font-family="Helvetica Neue, Helvetica, Arial, sans-serif">HIJO</text></g><g class="relationship" transform="translate(-121.23661934662553 -411.05401120437597) rotate(472.34256731451717)"><path class="b-outline" fill="#A5ABB6" stroke="none" d="M 25 0.5 L 68.42580140932144 0.5 L 68.42580140932144 -0.5 L 25 -0.5 Z M 92.64845765932144 0.5 L 136.07425906864287 0.5 L 136.07425906864287 3.5 L 143.07425906864287 0 L 136.07425906864287 -3.5 L 136.07425906864287 -0.5 L 92.64845765932144 -0.5 Z"/><text text-anchor="middle" pointer-events="none" font-size="8px" fill="#000000" x="80.53712953432144" y="3" transform="rotate(180 80.53712953432144 0)" font-family="Helvetica Neue, Helvetica, Arial, sans-serif">HIJO</text></g><g class="relationship" transform="translate(-185.12894466004656 -255.59749854724328) rotate(481.7097582978346)"><path class="b-outline" fill="#A5ABB6" stroke="none" d="M 25 0.5 L 66.64531031666793 0.5 L 66.64531031666793 -0.5 L 25 -0.5 Z M 90.86796656666793 0.5 L 132.51327688333586 0.5 L 132.51327688333586 3.5 L 139.51327688333586 0 L 132.51327688333586 -3.5 L 132.51327688333586 -0.5 L 90.86796656666793 -0.5 Z"/><text text-anchor="middle" pointer-events="none" font-size="8px" fill="#000000" x="78.75663844166793" y="3" transform="rotate(180 78.75663844166793 0)" font-family="Helvetica Neue, Helvetica, Arial, sans-serif">HIJO</text></g><g class="relationship" transform="translate(-271.59984549656207 -115.64250013913127) rotate(180.59397015404016)"><path class="b-outline" fill="#A5ABB6" stroke="none" d="M 25 0.5 L 104.35873404713301 0.5 L 104.35873404713301 -0.5 L 25 -0.5 Z M 128.581390297133 0.5 L 207.94012434426602 0.5 L 207.94012434426602 3.5 L 214.94012434426602 0 L 207.94012434426602 -3.5 L 207.94012434426602 -0.5 L 128.581390297133 -0.5 Z"/><text text-anchor="middle" pointer-events="none" font-size="8px" fill="#000000" x="116.47006217213301" y="3" transform="rotate(180 116.47006217213301 0)" font-family="Helvetica Neue, Helvetica, Arial, sans-serif">HIJO</text></g><g class="relationship" transform="translate(-401.10271635793686 159.57373454916143) rotate(268.5003125301626)"><path class="b-outline" fill="#A5ABB6" stroke="none" d="M 25 0.5 L 58.6646445227252 0.5 L 58.6646445227252 -0.5 L 25 -0.5 Z M 82.8873007727252 0.5 L 116.5519452954504 0.5 L 116.5519452954504 3.5 L 123.5519452954504 0 L 116.5519452954504 -3.5 L 116.5519452954504 -0.5 L 82.8873007727252 -0.5 Z"/><text text-anchor="middle" pointer-events="none" font-size="8px" fill="#000000" x="70.7759726477252" y="3" transform="rotate(180 70.7759726477252 0)" font-family="Helvetica Neue, Helvetica, Arial, sans-serif">HIJO</text></g><g class="relationship" transform="translate(-287.59078215487403 100.30418900314552) rotate(217.23721524568555)"><path class="b-outline" fill="#A5ABB6" stroke="none" d="M 25 0.5 L 58.11954610991381 0.5 L 58.11954610991381 -0.5 L 25 -0.5 Z M 82.34220235991381 0.5 L 115.46174846982763 0.5 L 115.46174846982763 3.5 L 122.46174846982763 0 L 115.46174846982763 -3.5 L 115.46174846982763 -0.5 L 82.34220235991381 -0.5 Z"/><text text-anchor="middle" pointer-events="none" font-size="8px" fill="#000000" x="70.23087423491381" y="3" transform="rotate(180 70.23087423491381 0)" font-family="Helvetica Neue, Helvetica, Arial, sans-serif">HIJO</text></g><g class="relationship" transform="translate(-404.9905429252059 11.072673086135788) rotate(230.49202912606506)"><path class="b-outline" fill="#A5ABB6" stroke="none" d="M 25 0.5 L 68.11937913931928 0.5 L 68.11937913931928 -0.5 L 25 -0.5 Z M 92.34203538931928 0.5 L 135.46141452863856 0.5 L 135.46141452863856 3.5 L 142.46141452863856 0 L 135.46141452863856 -3.5 L 135.46141452863856 -0.5 L 92.34203538931928 -0.5 Z"/><text text-anchor="middle" pointer-events="none" font-size="8px" fill="#000000" x="80.23070726431928" y="3" transform="rotate(180 80.23070726431928 0)" font-family="Helvetica Neue, Helvetica, Arial, sans-serif">HIJO</text></g><g class="relationship" transform="translate(-590.6474845105638 178.67465084806528) rotate(285.8814867784147)"><path class="b-outline" fill="#A5ABB6" stroke="none" d="M 25 0.5 L 59.78415365619988 0.5 L 59.78415365619988 -0.5 L 25 -0.5 Z M 84.00680990619988 0.5 L 118.79096356239975 0.5 L 118.79096356239975 3.5 L 125.79096356239975 0 L 118.79096356239975 -3.5 L 118.79096356239975 -0.5 L 84.00680990619988 -0.5 Z"/><text text-anchor="middle" pointer-events="none" font-size="8px" fill="#000000" x="71.89548178119988" y="3" font-family="Helvetica Neue, Helvetica, Arial, sans-serif">HIJO</text></g><g class="relationship" transform="translate(-549.3837710960861 33.639411518704975) rotate(284.0058170991015)"><path class="b-outline" fill="#A5ABB6" stroke="none" d="M 25 0.5 L 62.59838740687084 0.5 L 62.59838740687084 -0.5 L 25 -0.5 Z M 86.82104365687084 0.5 L 124.41943106374168 0.5 L 124.41943106374168 3.5 L 131.41943106374168 0 L 124.41943106374168 -3.5 L 124.41943106374168 -0.5 L 86.82104365687084 -0.5 Z"/><text text-anchor="middle" pointer-events="none" font-size="8px" fill="#000000" x="74.70971553187084" y="3" font-family="Helvetica Neue, Helvetica, Arial, sans-serif">HIJO</text></g><g class="relationship" transform="translate(-511.52707687072376 -118.12985123443634) rotate(538.0763271623271)"><path class="b-outline" fill="#A5ABB6" stroke="none" d="M 25 0.5 L 103.91522223421858 0.5 L 103.91522223421858 -0.5 L 25 -0.5 Z M 128.13787848421856 0.5 L 207.05310071843715 0.5 L 207.05310071843715 3.5 L 214.05310071843715 0 L 207.05310071843715 -3.5 L 207.05310071843715 -0.5 L 128.13787848421856 -0.5 Z"/><text text-anchor="middle" pointer-events="none" font-size="8px" fill="#000000" x="116.02655035921858" y="3" transform="rotate(180 116.02655035921858 0)" font-family="Helvetica Neue, Helvetica, Arial, sans-serif">HIJO</text></g><g class="relationship" transform="translate(-680.8459931054222 32.737290552290006) rotate(244.0225306119405)"><path class="b-outline" fill="#A5ABB6" stroke="none" d="M 25 0.5 L 63.8369058516524 0.5 L 63.8369058516524 -0.5 L 25 -0.5 Z M 88.0595621016524 0.5 L 126.8964679533048 0.5 L 126.8964679533048 3.5 L 133.8964679533048 0 L 126.8964679533048 -3.5 L 126.8964679533048 -0.5 L 88.0595621016524 -0.5 Z"/><text text-anchor="middle" pointer-events="none" font-size="8px" fill="#000000" x="75.9482339766524" y="3" transform="rotate(180 75.9482339766524 0)" font-family="Helvetica Neue, Helvetica, Arial, sans-serif">HIJO</text></g><g class="relationship" transform="translate(-812.520059421345 33.24338005001415) rotate(293.4141702976428)"><path class="b-outline" fill="#A5ABB6" stroke="none" d="M 25 0.5 L 62.4945253014744 0.5 L 62.4945253014744 -0.5 L 25 -0.5 Z M 86.7171815514744 0.5 L 124.2117068529488 0.5 L 124.2117068529488 3.5 L 131.2117068529488 0 L 124.2117068529488 -3.5 L 124.2117068529488 -0.5 L 86.7171815514744 -0.5 Z"/><text text-anchor="middle" pointer-events="none" font-size="8px" fill="#000000" x="74.6058534264744" y="3" font-family="Helvetica Neue, Helvetica, Arial, sans-serif">HIJO</text></g><g class="relationship" transform="translate(-750.4454548979521 -110.10528869572619) rotate(212.62416575918382)"><path class="b-outline" fill="#A5ABB6" stroke="none" d="M 25 0.5 L 34.53839539339434 0.5 L 34.53839539339434 -0.5 L 25 -0.5 Z M 58.76105164339434 0.5 L 68.29944703678868 0.5 L 68.29944703678868 3.5 L 75.29944703678868 0 L 68.29944703678868 -3.5 L 68.29944703678868 -0.5 L 58.76105164339434 -0.5 Z"/><text text-anchor="middle" pointer-events="none" font-size="8px" fill="#000000" x="46.64972351839434" y="3" transform="rotate(180 46.64972351839434 0)" font-family="Helvetica Neue, Helvetica, Arial, sans-serif">HIJO</text></g></g><g class="layer nodes"><g class="node" aria-label="graph-node0" transform="translate(-834.9201650650734,-164.17933439295905)"><circle class="b-outline" cx="0" cy="0" r="25" fill="#F16667" stroke="#eb2728" stroke-width="2px"/><text class="caption" text-anchor="middle" pointer-events="none" x="0" y="5" font-size="10px" fill="#FFFFFF" font-family="Helvetica Neue, Helvetica, Arial, sans-serif"> 5 0 0 0</text></g><g class="node" aria-label="graph-node1" transform="translate(-401.7932224378556,614.1739108284014)"><circle class="b-outline" cx="0" cy="0" r="25" fill="#F16667" stroke="#eb2728" stroke-width="2px"/><text class="caption" text-anchor="middle" pointer-events="none" x="0" y="5" font-size="10px" fill="#FFFFFF" font-family="Helvetica Neue, Helvetica, Arial, sans-serif"> 0 0 0 5</text></g><g class="node" aria-label="graph-node2" transform="translate(-480.76511510986404,471.6556316250478)"><circle class="b-outline" cx="0" cy="0" r="25" fill="#F16667" stroke="#eb2728" stroke-width="2px"/><text class="caption" text-anchor="middle" pointer-events="none" x="0" y="5" font-size="10px" fill="#FFFFFF" font-family="Helvetica Neue, Helvetica, Arial, sans-serif"> 0 0 1 4</text></g><g class="node" aria-label="graph-node3" transform="translate(-336.2349777232185,485.0269493322187)"><circle class="b-outline" cx="0" cy="0" r="25" fill="#F16667" stroke="#eb2728" stroke-width="2px"/><text class="caption" text-anchor="middle" pointer-events="none" x="0" y="5" font-size="10px" fill="#FFFFFF" font-family="Helvetica Neue, Helvetica, Arial, sans-serif"> 0 1 0 4</text></g><g class="node" aria-label="graph-node4" transform="translate(-133.64543398121802,759.1200415327739)"><circle class="b-outline" cx="0" cy="0" r="25" fill="#F16667" stroke="#eb2728" stroke-width="2px"/><text class="caption" text-anchor="middle" pointer-events="none" x="0" y="5" font-size="10px" fill="#FFFFFF" font-family="Helvetica Neue, Helvetica, Arial, sans-serif"> 0 0 2 3</text></g><g class="node" aria-label="graph-node5" transform="translate(-172.57025246839774,620.5741833273473)"><circle class="b-outline" cx="0" cy="0" r="25" fill="#F16667" stroke="#eb2728" stroke-width="2px"/><text class="caption" text-anchor="middle" pointer-events="none" x="0" y="5" font-size="10px" fill="#FFFFFF" font-family="Helvetica Neue, Helvetica, Arial, sans-serif"> 0 1 1 3</text></g><g class="node" aria-label="graph-node6" transform="translate(-181.05282182659656,469.3799320294172)"><circle class="b-outline" cx="0" cy="0" r="25" fill="#F16667" stroke="#eb2728" stroke-width="2px"/><text class="caption" text-anchor="middle" pointer-events="none" x="0" y="5" font-size="10px" fill="#FFFFFF" font-family="Helvetica Neue, Helvetica, Arial, sans-serif"> 0 2 0 3</text></g><g class="node" aria-label="graph-node7" transform="translate(236.30758219425306,737.9013490375197)"><circle class="b-outline" cx="0" cy="0" r="25" fill="#F16667" stroke="#eb2728" stroke-width="2px"/><text class="caption" text-anchor="middle" pointer-events="none" x="0" y="5" font-size="10px" fill="#FFFFFF" font-family="Helvetica Neue, Helvetica, Arial, sans-serif"> 0 0 3 2</text></g><g class="node" aria-label="graph-node8" transform="translate(115.52515646179951,659.7505875756242)"><circle class="b-outline" cx="0" cy="0" r="25" fill="#F16667" stroke="#eb2728" stroke-width="2px"/><text class="caption" text-anchor="middle" pointer-events="none" x="0" y="5" font-size="10px" fill="#FFFFFF" font-family="Helvetica Neue, Helvetica, Arial, sans-serif"> 0 1 2 2</text></g><g class="node" aria-label="graph-node9" transform="translate(41.12675121400319,526.3855959305903)"><circle class="b-outline" cx="0" cy="0" r="25" fill="#F16667" stroke="#eb2728" stroke-width="2px"/><text class="caption" text-anchor="middle" pointer-events="none" x="0" y="5" font-size="10px" fill="#FFFFFF" font-family="Helvetica Neue, Helvetica, Arial, sans-serif"> 0 2 1 2</text></g><g class="node" aria-label="graph-node10" transform="translate(-39.55226864475228,392.5116060495681)"><circle class="b-outline" cx="0" cy="0" r="25" fill="#F16667" stroke="#eb2728" stroke-width="2px"/><text class="caption" text-anchor="middle" pointer-events="none" x="0" y="5" font-size="10px" fill="#FFFFFF" font-family="Helvetica Neue, Helvetica, Arial, sans-serif"> 0 3 0 2</text></g><g class="node" aria-label="graph-node11" transform="translate(570.6937804777604,518.7209268704329)"><circle class="b-outline" cx="0" cy="0" r="25" fill="#F16667" stroke="#eb2728" stroke-width="2px"/><text class="caption" text-anchor="middle" pointer-events="none" x="0" y="5" font-size="10px" fill="#FFFFFF" font-family="Helvetica Neue, Helvetica, Arial, sans-serif"> 0 0 4 1</text></g><g class="node" aria-label="graph-node12" transform="translate(427.77566657133616,529.110738468823)"><circle class="b-outline" cx="0" cy="0" r="25" fill="#F16667" stroke="#eb2728" stroke-width="2px"/><text class="caption" text-anchor="middle" pointer-events="none" x="0" y="5" font-size="10px" fill="#FFFFFF" font-family="Helvetica Neue, Helvetica, Arial, sans-serif"> 0 1 3 1</text></g><g class="node" aria-label="graph-node13" transform="translate(307.1106185247133,438.26789012778994)"><circle class="b-outline" cx="0" cy="0" r="25" fill="#F16667" stroke="#eb2728" stroke-width="2px"/><text class="caption" text-anchor="middle" pointer-events="none" x="0" y="5" font-size="10px" fill="#FFFFFF" font-family="Helvetica Neue, Helvetica, Arial, sans-serif"> 0 2 2 1</text></g><g class="node" aria-label="graph-node14" transform="translate(178.88970520659322,343.65901955867434)"><circle class="b-outline" cx="0" cy="0" r="25" fill="#F16667" stroke="#eb2728" stroke-width="2px"/><text class="caption" text-anchor="middle" pointer-events="none" x="0" y="5" font-size="10px" fill="#FFFFFF" font-family="Helvetica Neue, Helvetica, Arial, sans-serif"> 0 3 1 1</text></g><g class="node" aria-label="graph-node15" transform="translate(46.3928808914703,248.66725557050563)"><circle class="b-outline" cx="0" cy="0" r="25" fill="#F16667" stroke="#eb2728" stroke-width="2px"/><text class="caption" text-anchor="middle" pointer-events="none" x="0" y="5" font-size="10px" fill="#FFFFFF" font-family="Helvetica Neue, Helvetica, Arial, sans-serif"> 0 4 0 1</text></g><g class="node" aria-label="graph-node16" transform="translate(760.2618200052685,158.7962454365556)"><circle class="b-outline" cx="0" cy="0" r="25" fill="#F16667" stroke="#eb2728" stroke-width="2px"/><text class="caption" text-anchor="middle" pointer-events="none" x="0" y="5" font-size="10px" fill="#FFFFFF" font-family="Helvetica Neue, Helvetica, Arial, sans-serif"> 0 0 5 0</text></g><g class="node" aria-label="graph-node17" transform="translate(652.7626728427288,254.4097383190348)"><circle class="b-outline" cx="0" cy="0" r="25" fill="#F16667" stroke="#eb2728" stroke-width="2px"/><text class="caption" text-anchor="middle" pointer-events="none" x="0" y="5" font-size="10px" fill="#FFFFFF" font-family="Helvetica Neue, Helvetica, Arial, sans-serif"> 0 1 4 0</text></g><g class="node" aria-label="graph-node18" transform="translate(506.1154535166093,218.2523027453022)"><circle class="b-outline" cx="0" cy="0" r="25" fill="#F16667" stroke="#eb2728" stroke-width="2px"/><text class="caption" text-anchor="middle" pointer-events="none" x="0" y="5" font-size="10px" fill="#FFFFFF" font-family="Helvetica Neue, Helvetica, Arial, sans-serif"> 0 2 3 0</text></g><g class="node" aria-label="graph-node19" transform="translate(354.91080435188974,171.90983108098678)"><circle class="b-outline" cx="0" cy="0" r="25" fill="#F16667" stroke="#eb2728" stroke-width="2px"/><text class="caption" text-anchor="middle" pointer-events="none" x="0" y="5" font-size="10px" fill="#FFFFFF" font-family="Helvetica Neue, Helvetica, Arial, sans-serif"> 0 3 2 0</text></g><g class="node" aria-label="graph-node20" transform="translate(197.50874125545366,116.49437310914256)"><circle class="b-outline" cx="0" cy="0" r="25" fill="#F16667" stroke="#eb2728" stroke-width="2px"/><text class="caption" text-anchor="middle" pointer-events="none" x="0" y="5" font-size="10px" fill="#FFFFFF" font-family="Helvetica Neue, Helvetica, Arial, sans-serif"> 0 4 1 0</text></g><g class="node" aria-label="graph-node21" transform="translate(34.73826375762422,66.58451576061036)"><circle class="b-outline" cx="0" cy="0" r="25" fill="#F16667" stroke="#eb2728" stroke-width="2px"/><text class="caption" text-anchor="middle" pointer-events="none" x="0" y="5" font-size="10px" fill="#FFFFFF" font-family="Helvetica Neue, Helvetica, Arial, sans-serif"> 0 5 0 0</text></g><g class="node" aria-label="graph-node22" transform="translate(636.0692073857114,-247.80738189605694)"><circle class="b-outline" cx="0" cy="0" r="25" fill="#F16667" stroke="#eb2728" stroke-width="2px"/><text class="caption" text-anchor="middle" pointer-events="none" x="0" y="5" font-size="10px" fill="#FFFFFF" font-family="Helvetica Neue, Helvetica, Arial, sans-serif"> 1 0 0 4</text></g><g class="node" aria-label="graph-node23" transform="translate(566.7367696634907,-366.49148891890627)"><circle class="b-outline" cx="0" cy="0" r="25" fill="#F16667" stroke="#eb2728" stroke-width="2px"/><text class="caption" text-anchor="middle" pointer-events="none" x="0" y="5" font-size="10px" fill="#FFFFFF" font-family="Helvetica Neue, Helvetica, Arial, sans-serif"> 1 0 1 3</text></g><g class="node" aria-label="graph-node24" transform="translate(488.4363487357355,-240.96356065208914)"><circle class="b-outline" cx="0" cy="0" r="25" fill="#F16667" stroke="#eb2728" stroke-width="2px"/><text class="caption" text-anchor="middle" pointer-events="none" x="0" y="5" font-size="10px" fill="#FFFFFF" font-family="Helvetica Neue, Helvetica, Arial, sans-serif"> 1 1 0 3</text></g><g class="node" aria-label="graph-node25" transform="translate(618.772418967302,-36.12282027903693)"><circle class="b-outline" cx="0" cy="0" r="25" fill="#F16667" stroke="#eb2728" stroke-width="2px"/><text class="caption" text-anchor="middle" pointer-events="none" x="0" y="5" font-size="10px" fill="#FFFFFF" font-family="Helvetica Neue, Helvetica, Arial, sans-serif"> 1 0 2 2</text></g><g class="node" aria-label="graph-node26" transform="translate(474.93716168554755,-66.63077582552091)"><circle class="b-outline" cx="0" cy="0" r="25" fill="#F16667" stroke="#eb2728" stroke-width="2px"/><text class="caption" text-anchor="middle" pointer-events="none" x="0" y="5" font-size="10px" fill="#FFFFFF" font-family="Helvetica Neue, Helvetica, Arial, sans-serif"> 1 1 1 2</text></g><g class="node" aria-label="graph-node27" transform="translate(340.04111738309746,-147.1805676216726)"><circle class="b-outline" cx="0" cy="0" r="25" fill="#F16667" stroke="#eb2728" stroke-width="2px"/><text class="caption" text-anchor="middle" pointer-events="none" x="0" y="5" font-size="10px" fill="#FFFFFF" font-family="Helvetica Neue, Helvetica, Arial, sans-serif"> 1 2 0 2</text></g><g class="node" aria-label="graph-node28" transform="translate(414.1773945028647,-543.8433684015307)"><circle class="b-outline" cx="0" cy="0" r="25" fill="#F16667" stroke="#eb2728" stroke-width="2px"/><text class="caption" text-anchor="middle" pointer-events="none" x="0" y="5" font-size="10px" fill="#FFFFFF" font-family="Helvetica Neue, Helvetica, Arial, sans-serif"> 1 0 3 1</text></g><g class="node" aria-label="graph-node29" transform="translate(334.5530827245089,-419.2980675546403)"><circle class="b-outline" cx="0" cy="0" r="25" fill="#F16667" stroke="#eb2728" stroke-width="2px"/><text class="caption" text-anchor="middle" pointer-events="none" x="0" y="5" font-size="10px" fill="#FFFFFF" font-family="Helvetica Neue, Helvetica, Arial, sans-serif"> 1 1 2 1</text></g><g class="node" aria-label="graph-node30" transform="translate(247.44787355216684,-278.5291140863661)"><circle class="b-outline" cx="0" cy="0" r="25" fill="#F16667" stroke="#eb2728" stroke-width="2px"/><text class="caption" text-anchor="middle" pointer-events="none" x="0" y="5" font-size="10px" fill="#FFFFFF" font-family="Helvetica Neue, Helvetica, Arial, sans-serif"> 1 2 1 1</text></g><g class="node" aria-label="graph-node31" transform="translate(146.16275867116835,-143.6419585838802)"><circle class="b-outline" cx="0" cy="0" r="25" fill="#F16667" stroke="#eb2728" stroke-width="2px"/><text class="caption" text-anchor="middle" pointer-events="none" x="0" y="5" font-size="10px" fill="#FFFFFF" font-family="Helvetica Neue, Helvetica, Arial, sans-serif"> 1 3 0 1</text></g><g class="node" aria-label="graph-node32" transform="translate(191.28170162733397,-712.4217992759282)"><circle class="b-outline" cx="0" cy="0" r="25" fill="#F16667" stroke="#eb2728" stroke-width="2px"/><text class="caption" text-anchor="middle" pointer-events="none" x="0" y="5" font-size="10px" fill="#FFFFFF" font-family="Helvetica Neue, Helvetica, Arial, sans-serif"> 1 0 4 0</text></g><g class="node" aria-label="graph-node33" transform="translate(144.00101589662333,-574.536253864651)"><circle class="b-outline" cx="0" cy="0" r="25" fill="#F16667" stroke="#eb2728" stroke-width="2px"/><text class="caption" text-anchor="middle" pointer-events="none" x="0" y="5" font-size="10px" fill="#FFFFFF" font-family="Helvetica Neue, Helvetica, Arial, sans-serif"> 1 1 3 0</text></g><g class="node" aria-label="graph-node34" transform="translate(90.0846352175303,-419.69069350365424)"><circle class="b-outline" cx="0" cy="0" r="25" fill="#F16667" stroke="#eb2728" stroke-width="2px"/><text class="caption" text-anchor="middle" pointer-events="none" x="0" y="5" font-size="10px" fill="#FFFFFF" font-family="Helvetica Neue, Helvetica, Arial, sans-serif"> 1 2 2 0</text></g><g class="node" aria-label="graph-node35" transform="translate(22.258758728010257,-254.7125467993587)"><circle class="b-outline" cx="0" cy="0" r="25" fill="#F16667" stroke="#eb2728" stroke-width="2px"/><text class="caption" text-anchor="middle" pointer-events="none" x="0" y="5" font-size="10px" fill="#FFFFFF" font-family="Helvetica Neue, Helvetica, Arial, sans-serif"> 1 3 1 0</text></g><g class="node" aria-label="graph-node36" transform="translate(-64.25680578182443,-106.09685462732983)"><circle class="b-outline" cx="0" cy="0" r="25" fill="#F16667" stroke="#eb2728" stroke-width="2px"/><text class="caption" text-anchor="middle" pointer-events="none" x="0" y="5" font-size="10px" fill="#FFFFFF" font-family="Helvetica Neue, Helvetica, Arial, sans-serif"> 1 4 0 0</text></g><g class="node" aria-label="graph-node37" transform="translate(-466.33670834364426,-550.6477556102888)"><circle class="b-outline" cx="0" cy="0" r="25" fill="#F16667" stroke="#eb2728" stroke-width="2px"/><text class="caption" text-anchor="middle" pointer-events="none" x="0" y="5" font-size="10px" fill="#FFFFFF" font-family="Helvetica Neue, Helvetica, Arial, sans-serif"> 2 0 0 3</text></g><g class="node" aria-label="graph-node38" transform="translate(-599.8772078000811,-462.55746920773106)"><circle class="b-outline" cx="0" cy="0" r="25" fill="#F16667" stroke="#eb2728" stroke-width="2px"/><text class="caption" text-anchor="middle" pointer-events="none" x="0" y="5" font-size="10px" fill="#FFFFFF" font-family="Helvetica Neue, Helvetica, Arial, sans-serif"> 2 0 1 2</text></g><g class="node" aria-label="graph-node39" transform="translate(-467.95584565553105,-402.46088946477164)"><circle class="b-outline" cx="0" cy="0" r="25" fill="#F16667" stroke="#eb2728" stroke-width="2px"/><text class="caption" text-anchor="middle" pointer-events="none" x="0" y="5" font-size="10px" fill="#FFFFFF" font-family="Helvetica Neue, Helvetica, Arial, sans-serif"> 2 1 0 2</text></g><g class="node" aria-label="graph-node40" transform="translate(-277.7207390120111,-597.1662915096147)"><circle class="b-outline" cx="0" cy="0" r="25" fill="#F16667" stroke="#eb2728" stroke-width="2px"/><text class="caption" text-anchor="middle" pointer-events="none" x="0" y="5" font-size="10px" fill="#FFFFFF" font-family="Helvetica Neue, Helvetica, Arial, sans-serif"> 2 0 2 1</text></g><g class="node" aria-label="graph-node41" transform="translate(-309.7970196907344,-449.1266550852903)"><circle class="b-outline" cx="0" cy="0" r="25" fill="#F16667" stroke="#eb2728" stroke-width="2px"/><text class="caption" text-anchor="middle" pointer-events="none" x="0" y="5" font-size="10px" fill="#FFFFFF" font-family="Helvetica Neue, Helvetica, Arial, sans-serif"> 2 1 1 1</text></g><g class="node" aria-label="graph-node42" transform="translate(-345.89763618621157,-287.6959790999081)"><circle class="b-outline" cx="0" cy="0" r="25" fill="#F16667" stroke="#eb2728" stroke-width="2px"/><text class="caption" text-anchor="middle" pointer-events="none" x="0" y="5" font-size="10px" fill="#FFFFFF" font-family="Helvetica Neue, Helvetica, Arial, sans-serif"> 2 2 0 1</text></g><g class="node" aria-label="graph-node43" transform="translate(-82.64650492949043,-556.797870940778)"><circle class="b-outline" cx="0" cy="0" r="25" fill="#F16667" stroke="#eb2728" stroke-width="2px"/><text class="caption" text-anchor="middle" pointer-events="none" x="0" y="5" font-size="10px" fill="#FFFFFF" font-family="Helvetica Neue, Helvetica, Arial, sans-serif"> 2 0 3 0</text></g><g class="node" aria-label="graph-node44" transform="translate(-121.23661934662553,-411.05401120437597)"><circle class="b-outline" cx="0" cy="0" r="25" fill="#F16667" stroke="#eb2728" stroke-width="2px"/><text class="caption" text-anchor="middle" pointer-events="none" x="0" y="5" font-size="10px" fill="#FFFFFF" font-family="Helvetica Neue, Helvetica, Arial, sans-serif"> 2 1 2 0</text></g><g class="node" aria-label="graph-node45" transform="translate(-185.12894466004656,-255.59749854724328)"><circle class="b-outline" cx="0" cy="0" r="25" fill="#F16667" stroke="#eb2728" stroke-width="2px"/><text class="caption" text-anchor="middle" pointer-events="none" x="0" y="5" font-size="10px" fill="#FFFFFF" font-family="Helvetica Neue, Helvetica, Arial, sans-serif"> 2 2 1 0</text></g><g class="node" aria-label="graph-node46" transform="translate(-271.59984549656207,-115.64250013913127)"><circle class="b-outline" cx="0" cy="0" r="25" fill="#F16667" stroke="#eb2728" stroke-width="2px"/><text class="caption" text-anchor="middle" pointer-events="none" x="0" y="5" font-size="10px" fill="#FFFFFF" font-family="Helvetica Neue, Helvetica, Arial, sans-serif"> 2 3 0 0</text></g><g class="node" aria-label="graph-node47" transform="translate(-401.10271635793686,159.57373454916143)"><circle class="b-outline" cx="0" cy="0" r="25" fill="#F16667" stroke="#eb2728" stroke-width="2px"/><text class="caption" text-anchor="middle" pointer-events="none" x="0" y="5" font-size="10px" fill="#FFFFFF" font-family="Helvetica Neue, Helvetica, Arial, sans-serif"> 3 0 0 2</text></g><g class="node" aria-label="graph-node48" transform="translate(-287.59078215487403,100.30418900314552)"><circle class="b-outline" cx="0" cy="0" r="25" fill="#F16667" stroke="#eb2728" stroke-width="2px"/><text class="caption" text-anchor="middle" pointer-events="none" x="0" y="5" font-size="10px" fill="#FFFFFF" font-family="Helvetica Neue, Helvetica, Arial, sans-serif"> 3 0 1 1</text></g><g class="node" aria-label="graph-node49" transform="translate(-404.9905429252059,11.072673086135788)"><circle class="b-outline" cx="0" cy="0" r="25" fill="#F16667" stroke="#eb2728" stroke-width="2px"/><text class="caption" text-anchor="middle" pointer-events="none" x="0" y="5" font-size="10px" fill="#FFFFFF" font-family="Helvetica Neue, Helvetica, Arial, sans-serif"> 3 1 0 1</text></g><g class="node" aria-label="graph-node50" transform="translate(-590.6474845105638,178.67465084806528)"><circle class="b-outline" cx="0" cy="0" r="25" fill="#F16667" stroke="#eb2728" stroke-width="2px"/><text class="caption" text-anchor="middle" pointer-events="none" x="0" y="5" font-size="10px" fill="#FFFFFF" font-family="Helvetica Neue, Helvetica, Arial, sans-serif"> 3 0 2 0</text></g><g class="node" aria-label="graph-node51" transform="translate(-549.3837710960861,33.639411518704975)"><circle class="b-outline" cx="0" cy="0" r="25" fill="#F16667" stroke="#eb2728" stroke-width="2px"/><text class="caption" text-anchor="middle" pointer-events="none" x="0" y="5" font-size="10px" fill="#FFFFFF" font-family="Helvetica Neue, Helvetica, Arial, sans-serif"> 3 1 1 0</text></g><g class="node" aria-label="graph-node52" transform="translate(-511.52707687072376,-118.12985123443634)"><circle class="b-outline" cx="0" cy="0" r="25" fill="#F16667" stroke="#eb2728" stroke-width="2px"/><text class="caption" text-anchor="middle" pointer-events="none" x="0" y="5" font-size="10px" fill="#FFFFFF" font-family="Helvetica Neue, Helvetica, Arial, sans-serif"> 3 2 0 0</text></g><g class="node" aria-label="graph-node53" transform="translate(-680.8459931054222,32.737290552290006)"><circle class="b-outline" cx="0" cy="0" r="25" fill="#F16667" stroke="#eb2728" stroke-width="2px"/><text class="caption" text-anchor="middle" pointer-events="none" x="0" y="5" font-size="10px" fill="#FFFFFF" font-family="Helvetica Neue, Helvetica, Arial, sans-serif"> 4 0 0 1</text></g><g class="node selected" aria-label="graph-node54" transform="translate(-812.520059421345,33.24338005001415)"><circle class="b-outline" cx="0" cy="0" r="25" fill="#F16667" stroke="#eb2728" stroke-width="2px"/><text class="caption" text-anchor="middle" pointer-events="none" x="0" y="5" font-size="10px" fill="#FFFFFF" font-family="Helvetica Neue, Helvetica, Arial, sans-serif"> 4 0 1 0</text></g><g class="node" aria-label="graph-node55" transform="translate(-750.4454548979521,-110.10528869572619)"><circle class="b-outline" cx="0" cy="0" r="25" fill="#F16667" stroke="#eb2728" stroke-width="2px"/><text class="caption" text-anchor="middle" pointer-events="none" x="0" y="5" font-size="10px" fill="#FFFFFF" font-family="Helvetica Neue, Helvetica, Arial, sans-serif"> 4 1 0 0</text></g></g></svg>